<svg version="1.1" id="Layer_1" xmlns="http://www.w3.org/2000/svg" xmlns:xlink="http://www.w3.org/1999/xlink" x="0px" y="0px"
	 width="100%" viewBox="0 0 100 100" enable-background="new 0 0 100 100" xml:space="preserve">
<path fill="#010101" opacity="1.000000" stroke="none" 
	d="
M64.000000,101.000000 
	C42.666672,101.000000 21.833342,101.000000 1.000008,101.000000 
	C1.000006,67.666679 1.000006,34.333351 1.000003,1.000022 
	C34.333317,1.000015 67.666634,1.000015 100.999969,1.000007 
	C100.999977,34.333309 100.999977,67.666618 100.999985,100.999969 
	C88.833336,101.000000 76.666664,101.000000 64.000000,101.000000 
M64.575920,88.996887 
	C66.353523,88.668694 68.143364,88.395493 69.906624,88.002884 
	C78.003738,86.199928 78.001076,86.187950 78.001083,78.050323 
	C78.001083,74.550713 78.001083,71.051094 78.001083,67.551483 
	C78.001083,52.763832 78.001083,37.976185 78.001083,23.095427 
	C58.181118,28.203165 38.710056,28.065598 19.234297,23.224684 
	C19.234297,44.284374 19.234297,65.043205 19.234297,86.029114 
	C33.924084,90.773384 48.731892,90.896729 64.575920,88.996887 
M34.110565,24.423325 
	C48.807781,25.363159 63.494633,26.189419 77.604538,20.254427 
	C58.194000,14.625031 38.816635,14.199720 19.451881,19.788668 
	C19.396275,20.315142 19.340670,20.841616 19.285063,21.368090 
	C23.935291,22.313948 28.585520,23.259806 34.110565,24.423325 
M91.994118,42.582977 
	C88.600273,40.210793 85.206436,37.838608 81.546379,35.280346 
	C80.459579,39.469933 81.092781,41.665916 84.189377,44.001152 
	C88.374191,47.157043 92.866798,50.608349 92.121437,57.263035 
	C91.525307,62.585258 87.654274,65.347023 84.177948,68.002914 
	C81.193428,70.283081 80.438599,72.372490 81.332108,75.813652 
	C83.171967,74.842697 84.890137,73.973854 86.573074,73.041420 
	C94.814705,68.475128 99.163918,59.876263 96.891106,51.645870 
	C96.056892,48.624966 94.021751,45.935696 91.994118,42.582977 
z"/>
<path fill="#FBFBFB" opacity="1.000000" stroke="none" 
	d="
M64.130608,89.009445 
	C48.731892,90.896729 33.924084,90.773384 19.234297,86.029114 
	C19.234297,65.043205 19.234297,44.284374 19.234297,23.224684 
	C38.710056,28.065598 58.181118,28.203165 78.001083,23.095427 
	C78.001083,37.976185 78.001083,52.763832 78.001083,67.551483 
	C78.001083,71.051094 78.001083,74.550713 78.001083,78.050323 
	C78.001076,86.187950 78.003738,86.199928 69.906624,88.002884 
	C68.143364,88.395493 66.353523,88.668694 64.130608,89.009445 
z"/>
<path fill="#C5C5C5" opacity="1.000000" stroke="none" 
	d="
M33.673157,24.314495 
	C28.585520,23.259806 23.935291,22.313948 19.285063,21.368090 
	C19.340670,20.841616 19.396275,20.315142 19.451881,19.788668 
	C38.816635,14.199720 58.194000,14.625031 77.604538,20.254427 
	C63.494633,26.189419 48.807781,25.363159 33.673157,24.314495 
z"/>
<path fill="#F9F9F9" opacity="1.000000" stroke="none" 
	d="
M92.264267,42.839062 
	C94.021751,45.935696 96.056892,48.624966 96.891106,51.645870 
	C99.163918,59.876263 94.814705,68.475128 86.573074,73.041420 
	C84.890137,73.973854 83.171967,74.842697 81.332108,75.813652 
	C80.438599,72.372490 81.193428,70.283081 84.177948,68.002914 
	C87.654274,65.347023 91.525307,62.585258 92.121437,57.263035 
	C92.866798,50.608349 88.374191,47.157043 84.189377,44.001152 
	C81.092781,41.665916 80.459579,39.469933 81.546379,35.280346 
	C85.206436,37.838608 88.600273,40.210793 92.264267,42.839062 
z"/>
</svg>